<svg version="1.1" id="Lager_1" xmlns="http://www.w3.org/2000/svg" x="0" y="0" viewBox="0 0 671.7 260" xml:space="preserve"><style>.st0{fill:#fff}.st1{fill:#bfd4e7}.st2{fill:#0082ca}.st3{fill:#093a5d}</style><circle class="st0" cx="130" cy="130" r="130"/><path class="st0" d="M317.9 103.3c0 8.1-5.4 13.2-13.1 13.2-7.8 0-13.1-5-13.1-13.2v-6.4h5.4v6.4c0 5 2.8 8.2 7.7 8.2 4.8 0 7.7-3.2 7.7-8.2v-9.4c0-17.4-20.8-14-20.8-33v-8.4c0-8.1 5.2-13.2 13.1-13.2 7.7 0 13.1 5 13.1 13.2v6.1h-5.4v-6.1c0-5-3-8.2-7.7-8.2s-7.7 3.2-7.7 8.2v8.4c0 15.5 20.8 12.6 20.8 33v9.4zM348.9 97.8c0 6.9-7.4 18.6-12 18.6-4.7 0-12-11.8-12-18.6V58.6h5.4v39.2c0 4.6 4.6 12.6 6.6 12.6 1.9 0 6.6-8 6.6-12.6v-29c0-3.9-1-5.2-3.9-5.2v-4.9c7.4-.6 9.2 2.9 9.2 10.2v28.9zM382 98.9v5.9c0 7.3-5.4 11.7-12 11.7s-12-4.4-12-11.7V69.2c0-7.3 5.4-11.7 12-11.7s12 4.4 12 11.7v9.2c0 3.9-1.7 5.7-4.8 7.2l-13.8 7v12.2c-.1 3.7 2.9 6.7 6.5 6.7s6.7-2.9 6.7-6.5V98.9h5.4zm-18.6-12.2 11.8-5.8c.9-.5 1.5-1.4 1.5-2.5v-9.2c.1-3.7-2.9-6.7-6.5-6.7s-6.7 2.9-6.7 6.5v17.7zM409.6 115.4V69.2c.1-3.7-2.9-6.7-6.5-6.8-3.7-.1-6.7 2.9-6.8 6.5V115.3h-5.4V69.2c0-7.3 5.4-11.7 12-11.7s12 4.4 12 11.7v46.2h-5.3zM429.1 98.9v5.9c-.1 3.7 2.9 6.7 6.5 6.8s6.7-2.9 6.8-6.5v-6.7c0-11.2-18.6-9-18.6-23.7v-5.4c0-7.3 5.5-11.7 12-11.7 6.6 0 12 4.4 12 11.7v5.1h-5.4v-5.1c.1-3.7-2.9-6.7-6.5-6.8s-6.7 2.9-6.8 6.5V74.6c0 11 18.6 8.1 18.6 23.7v6.5c0 7.3-5.4 11.7-12 11.7-6.5 0-12-4.4-12-11.7v-5.9h5.4zM461.8 87.5c9.7-8.9 13.3-14.9 13.3-21.9 0-2.1-1.1-3.4-3.4-3.2l.6-4.8c5.4-.2 8.1 1.8 8.1 7.9 0 6.7-2.4 12.5-8.6 19.3 4.8 3.8 8.6 8.4 8.6 16.8v13.8H475v-13.8c0-6.2-3.2-10.1-7-13.1-1.8 1.8-4 3.6-6.3 5.6v21.3h-5.4V36.1h5.4l.1 51.4zM316.4 193.2v5.9c0 7.3-5.4 11.7-12 11.7s-12-4.4-12-11.7v-35.6c0-7.3 5.4-11.7 12-11.7s12 4.4 12 11.7v9.2c0 3.9-1.7 5.7-4.8 7.2l-13.8 7v12.2c-.1 3.7 2.9 6.7 6.5 6.7 3.7.1 6.7-2.9 6.7-6.5V193.2h5.4zM297.8 181l11.8-5.8c.9-.5 1.5-1.4 1.5-2.5v-9.2c.1-3.7-2.9-6.7-6.5-6.8s-6.7 2.9-6.8 6.5V181zM324.2 177.6h17.5v4.9h-17.5v-4.9zM355.7 209.7h-5.4v-79.3h5.4v79.3zM389.3 193.2v5.9c0 7.3-5.4 11.7-12 11.7s-12-4.4-12-11.7v-35.6c0-7.3 5.4-11.7 12-11.7s12 4.4 12 11.7v9.2c0 3.9-1.7 5.7-4.8 7.2l-13.8 7v12.2c-.1 3.7 2.9 6.7 6.5 6.7s6.7-2.9 6.7-6.5V193.2h5.4zM370.6 181l11.8-5.8c.9-.5 1.5-1.4 1.5-2.5v-9.2c.1-3.7-2.9-6.7-6.5-6.8-3.7-.1-6.7 2.9-6.8 6.5V181zM422.1 219.5c0 7.2-5.1 11.6-11.9 11.6-7.3 0-11.9-4.3-11.9-11.6.1-2.4.9-4.6 2.2-6.5l4.6 2c-.9 1.3-1.5 2.9-1.6 4.5 0 4.3 2.9 6.6 6.6 6.6 3.9 0 6.5-2.5 6.5-6.6v-12c-1.6 2.1-4 3.3-6.6 3.2-6.5 0-12-4.4-12-11.7v-35.6c0-7.3 5.5-11.7 12-11.7 6.6 0 12 4.4 12 11.7l.1 56.1zm-18.6-20.4c-.1 3.7 2.9 6.7 6.5 6.7 3.7.1 6.7-2.9 6.7-6.5V163.5c.1-3.7-2.9-6.7-6.5-6.8-3.7-.1-6.7 2.9-6.8 6.5V199.1zM434.4 134.9c2 0 3.5 1.6 3.5 3.5 0 2-1.6 3.5-3.5 3.5-2 0-3.5-1.6-3.5-3.5s1.5-3.5 3.5-3.5zm2.7 18v56.8h-5.4v-56.8h5.4zM444.7 152.9h6.4v-14.1h5.4v14.1h9.9v4.9h-9.9v41.5c0 4.2 1.7 6.5 5.2 6.5 1.6 0 3.2-.2 4.8-.5v4.7c-1.6.5-3.2.7-4.8.8-6.7 0-10.6-4.2-10.6-11.5v-41.5h-6.4v-4.9zM476.7 134.9c2 0 3.5 1.6 3.5 3.5 0 2-1.6 3.5-3.5 3.5-2 0-3.5-1.6-3.5-3.5s1.5-3.5 3.5-3.5zm2.7 18v56.8H474v-56.8h5.4zM507 209.7v-46.2c0-4.2-2.9-6.8-6.3-6.8-3.8 0-6.3 2.6-6.3 6.8v46.2H489v-46.2c0-7.3 5-11.7 11.7-11.7 4 0 7.4 1.7 9 5 1.8-3.2 5.3-5.2 9-5 6.6 0 11.7 4.4 11.7 11.7v46.2H525v-46.2c0-4.2-2.6-6.8-6.3-6.8-3.5 0-6.3 2.6-6.3 6.8v46.2H507zM539.3 190.9c0-6.2 3.6-9.7 7.6-11.6l11-5.1v-10.7c.1-3.7-2.9-6.7-6.5-6.7-3.7-.1-6.7 2.9-6.7 6.5v5.3h-5.4v-5.1c0-7.3 5.5-11.7 12-11.7 6.6 0 12 4.4 12 11.7v35.6c0 7.3-5.4 11.7-12 11.7-6.5 0-12-4.4-12-11.7v-8.2zm5.4 8.2c-.1 3.7 2.9 6.7 6.5 6.7s6.7-2.9 6.7-6.5V179.7l-8.8 4.1c-2.8 1.3-4.5 4.1-4.5 7.2l.1 8.1zM570.3 152.9h6.4v-14.1h5.4v14.1h9.9v4.9h-9.9v41.5c0 4.2 1.7 6.5 5.2 6.5 1.6 0 3.2-.2 4.8-.5v4.7c-1.6.5-3.2.7-4.8.8-6.7 0-10.6-4.2-10.6-11.5v-41.5h-6.4v-4.9zM602.3 134.9c2 0 3.5 1.6 3.5 3.5 0 2-1.6 3.5-3.5 3.5s-3.5-1.6-3.5-3.5c-.1-1.9 1.5-3.5 3.5-3.5-.1 0 0 0 0 0zm2.7 18v56.8h-5.4v-56.8h5.4zM638.5 199.1c0 7.3-5.4 11.7-12 11.7s-12-4.4-12-11.7v-35.6c0-7.3 5.4-11.7 12-11.7s12 4.4 12 11.7v35.6zm-5.4-35.6c.1-3.7-2.9-6.7-6.5-6.7s-6.7 2.9-6.7 6.5V199.1c-.1 3.7 2.9 6.7 6.5 6.7s6.7-2.9 6.7-6.5V163.5zM666.4 209.7v-46.2c.1-3.7-2.9-6.7-6.5-6.7-3.7-.1-6.7 2.9-6.7 6.5V209.7h-5.4v-46.2c0-7.3 5.4-11.7 12-11.7s12 4.4 12 11.7v46.2h-5.4z"/><path class="st1" d="M83.5 18.4C53.9 30.8 30.4 54.4 18.1 84l27.7 11.4C55 73.1 72.7 55.4 95 46L83.5 18.4z"/><path class="st2" d="M214.2 164.7c-4.6 11.1-11.3 21.1-19.7 29.6l-.1-.1-21.1-21c-5.7 5.7-12.4 10.2-19.8 13.3L165 214v.1l11.5 27.6c29.6-12.4 53.1-36 65.3-65.6l-27.6-11.4z"/><path class="st1" d="m164.7 45.9-11.4 27.7c7.4 3.1 14.2 7.6 19.9 13.2l21-21.1.1-.1c-8.5-8.4-18.6-15.2-29.6-19.7z"/><path class="st2" d="M130 9.1h-.2c-15.9 0-31.7 3.2-46.3 9.3L95 46c11-4.6 22.9-7 34.9-7v.1l.1 29.8h.1c8 0 15.9 1.6 23.3 4.6L164.6 46v-.1L176 18.2c-14.6-6-30.2-9.1-46-9.1zM68.8 130.2v-.1c0-8 1.6-15.9 4.6-23.3L45.9 95.4h-.1L18.1 84c-6 14.6-9.1 30.3-9.1 46.1v.2c0 15.9 3.2 31.7 9.3 46.3l27.6-11.5c-4.6-11-7-22.9-7-34.9H68.8z"/><path class="st3" d="M251 129.9c-.2-48.9-29.7-93-74.9-111.7l-11.4 27.7c11.1 4.6 21.1 11.3 29.6 19.7l-.1.1-21 21.1c5.7 5.7 10.2 12.4 13.3 19.8L214 95.1h.1c4.6 11 7 22.9 7 34.9v.2c0 11.9-2.3 23.7-6.9 34.7l27.7 11.4c6-14.6 9.1-30.3 9.1-46.1v-.3zM186.5 153.3l-27.7-11.4c-3.2 7.6-9.2 13.7-16.8 16.9l11.5 27.6v.1c15-6.2 26.8-18.2 33-33.2z"/><path class="st1" d="m221.1 129.9-29.9.1h-.1l-29.9.1v.1c0 4.1-.8 8.1-2.4 11.9l27.7 11.4h.1c-3.1 7.4-7.6 14.2-13.2 19.9l21.1 21 .1.1c17-17 26.6-40.2 26.6-64.2-.1-.3-.1-.3-.1-.4zM130 68.9h-.1v.1l.1 29.9h.1c4.1 0 8.1.8 11.9 2.4l11.4-27.7v-.1c-7.5-3-15.4-4.6-23.4-4.6z"/><path class="st2" d="m214.1 95-27.6 11.5c-6.3-15-18.2-26.8-33.2-33v.1l-11.4 27.7c11.7 4.8 19.3 16.1 19.3 28.7l29.9-.1h.1l29.8-.1h.1c0-11.9-2.4-23.7-7-34.8z"/><path class="st3" d="m129.9 69-.1-29.9V39c-36.8.1-70 22.4-84 56.4h.1l27.6 11.4c3.1-7.4 7.6-14.2 13.2-19.9l.1.1 21.2 21.1c5.8-5.9 13.7-9.2 22-9.2l-.1-29.9z"/><path class="st1" d="M98.8 130.1c0-8.2 3.3-16.1 9.1-22L86.8 87l-.1-.1c-11.4 11.4-17.9 27-17.9 43.1v.1l-29.8.1h-.1c0 12 2.4 23.8 7 34.9h.1l27.5-11.5h.1l27.6-11.5c-1.5-3.8-2.3-7.9-2.4-12z"/><path class="st3" d="m86.9 173.4-21 21.1-.1.1c-8.5-8.4-15.2-18.4-19.8-29.4l-27.6 11.5c12.4 29.6 36 53.1 65.6 65.3l11.4-27.7v-.1l11.4-27.6c-7.5-3.1-14.3-7.6-19.9-13.2z"/><path class="st2" d="M108 152.1c-2.9-2.9-5.2-6.3-6.8-10.1l-27.6 11.5h-.1L46 165.1h-.1c4.6 11 11.3 21 19.8 29.4l.1-.1 21-21.1c5.7 5.7 12.4 10.2 19.9 13.2v-.1l11.4-27.7c-3.7-1.4-7.2-3.7-10.1-6.6z"/></svg>